<svg data-v-fde0c5aa="" xmlns="http://www.w3.org/2000/svg" viewBox="0 0 300 300" class="iconLeft"><!----><defs data-v-fde0c5aa=""><!----></defs><rect data-v-fde0c5aa="" fill="transparent" x="0" y="0" width="300px" height="300px" class="logo-background-square"></rect><defs data-v-fde0c5aa=""><!----></defs><g data-v-fde0c5aa="" id="a4d0792b-9d87-4da2-bd7d-0b7ba3c2d0cc" fill="#000000" transform="matrix(2.0419942395876447,0,0,2.0419942395876447,86.55300803152842,133.11270719070876)"><path d="M1.62 13.43C4.00 13.43 5.03 12.31 5.03 9.83L5.03 5.49C5.03 4.34 5.43 3.65 5.78 3.42L5.78 3.39L2.35 3.39L2.35 3.42C2.72 3.65 3.11 4.33 3.11 5.50L3.11 10.33C3.11 11.34 2.59 11.90 1.54 11.90C0.64 11.90 0.21 11.23 0.11 11.05L0.08 11.05L0.22 13.22C0.76 13.36 1.27 13.43 1.62 13.43ZM11.89 13.40C15.01 13.40 17.09 11.27 17.09 8.15C17.09 5.14 15.09 3.11 12.10 3.11C8.86 3.11 6.90 5.19 6.90 8.34C6.90 11.21 8.75 13.40 11.89 13.40ZM12.03 11.94C10.02 11.94 8.99 10.50 8.99 8.20C8.99 6.02 10.11 4.56 11.96 4.56C13.86 4.56 15.01 5.92 15.01 8.29C15.01 10.53 13.75 11.94 12.03 11.94ZM23.93 7.94L23.93 7.90C24.74 7.77 25.54 6.90 25.54 5.84C25.54 4.17 24.47 3.39 22.37 3.39L18.51 3.39L18.51 3.42C18.96 3.72 19.33 4.41 19.33 5.56L19.33 10.93C19.33 12.19 18.86 12.82 18.51 13.09L18.51 13.12L22.76 13.12C24.67 13.12 26.04 12.07 26.04 10.25C26.04 9.11 25.09 8.08 23.93 7.94ZM22.26 4.76C23.09 4.76 23.56 5.14 23.56 5.94C23.56 6.83 23.07 7.28 22.26 7.28L21.25 7.28L21.25 4.76ZM22.48 11.75L21.25 11.75L21.25 8.64L22.48 8.64C23.53 8.64 24.04 9.25 24.04 10.18C24.04 11.10 23.53 11.75 22.48 11.75ZM34.85 3.39L31.02 3.39L31.02 3.42C31.39 3.65 31.78 4.33 31.78 5.43L31.78 11.02C31.78 12.17 31.37 12.85 31.02 13.09L31.02 13.12L34.45 13.12L34.45 13.09C34.09 12.85 33.70 12.18 33.70 11.07L33.70 9.91L34.85 9.91C37.07 9.91 38.37 8.83 38.37 6.55C38.37 4.54 37.07 3.39 34.85 3.39ZM34.52 8.53L33.70 8.51L33.70 4.77L34.52 4.77C35.80 4.77 36.39 5.36 36.39 6.65C36.39 7.85 35.81 8.54 34.52 8.53ZM44.39 13.40C47.52 13.40 49.60 11.27 49.60 8.15C49.60 5.14 47.60 3.11 44.60 3.11C41.37 3.11 39.41 5.19 39.41 8.34C39.41 11.21 41.26 13.40 44.39 13.40ZM44.53 11.94C42.53 11.94 41.50 10.50 41.50 8.20C41.50 6.02 42.62 4.56 44.46 4.56C46.37 4.56 47.52 5.92 47.52 8.29C47.52 10.53 46.26 11.94 44.53 11.94ZM57.96 11.23L56.66 9.11C57.83 8.74 58.56 7.83 58.56 6.34C58.56 4.52 57.26 3.39 55.02 3.39L51.04 3.39L51.04 3.42C51.41 3.65 51.80 4.33 51.80 5.43L51.80 11.02C51.80 12.17 51.41 12.85 51.04 13.09L51.04 13.12L54.42 13.12L54.42 13.09C54.11 12.85 53.72 12.18 53.72 11.07L53.72 4.77L54.70 4.76C55.90 4.75 56.57 5.39 56.57 6.41C56.57 7.66 55.90 8.15 54.70 8.15L54.03 8.15L56.20 11.86C56.50 12.38 56.73 12.87 56.91 13.41L59.78 12.89L59.78 12.87C59.11 12.64 58.49 12.08 57.96 11.23ZM67.24 3.28C66.60 3.36 66.01 3.39 65.32 3.39L61.91 3.39C61.22 3.39 60.63 3.36 59.99 3.28L59.75 5.84L59.78 5.85C60.10 5.29 60.76 4.82 61.60 4.82L62.66 4.82L62.66 10.91C62.66 12.10 62.22 12.85 61.81 13.09L61.81 13.12L65.44 13.12L65.44 13.09C64.97 12.85 64.58 12.11 64.58 10.91L64.58 4.82L65.63 4.82C66.47 4.82 67.13 5.29 67.45 5.85L67.48 5.84ZM76.10 10.82L74.05 5.05C73.75 4.23 74.03 3.65 74.30 3.42L74.30 3.39L70.59 3.39L70.59 3.42C70.85 3.64 71.12 4.23 70.84 5.05L68.84 10.82C68.46 11.90 67.86 12.75 67.48 13.09L67.48 13.12L70.42 13.12L70.42 13.09C70.22 12.91 70.08 12.33 70.45 11.37L70.57 11.03L74.19 11.03L74.31 11.37C74.66 12.33 74.55 12.91 74.31 13.09L74.31 13.12L77.48 13.12L77.48 13.09C77.08 12.77 76.48 11.90 76.10 10.82ZM72.34 5.25L72.39 5.25C72.53 6.33 72.88 7.27 73.21 8.18L73.72 9.66L71.04 9.66L71.55 8.18C71.88 7.27 72.21 6.33 72.34 5.25ZM84.57 13.23L84.94 10.47L84.91 10.46C84.31 11.30 83.33 11.72 82.11 11.72L80.72 11.72L80.72 5.49C80.72 4.34 81.13 3.65 81.48 3.42L81.48 3.39L78.05 3.39L78.05 3.42C78.41 3.65 78.81 4.33 78.81 5.43L78.81 11.02C78.81 12.17 78.40 12.85 78.05 13.09L78.05 13.12L83.02 13.12C83.66 13.12 84.04 13.13 84.57 13.23Z"></path></g><defs data-v-fde0c5aa=""><linearGradient data-v-fde0c5aa="" gradientTransform="rotate(25)" id="93834048-e817-4095-ac66-8785bbfe05cf" x1="0%" y1="0%" x2="100%" y2="0%"><stop data-v-fde0c5aa="" offset="0%" stop-color="#D6413F" stop-opacity="1"></stop><stop data-v-fde0c5aa="" offset="100%" stop-color="#4285D3" stop-opacity="1"></stop></linearGradient></defs><g data-v-fde0c5aa="" id="73e34092-66bb-4a45-ace2-d0acb8ba05b7" stroke="none" fill="url(#93834048-e817-4095-ac66-8785bbfe05cf)" transform="matrix(0.7024305211123875,0,0,0.7024305211123875,34.3798537864364,126.46892990484717)"><path d="M14 45h18.339c1.155 4.49 5.226 7.823 10.073 7.823 2.149 0 4.148-.655 5.809-1.775l4.366 4.366c.39.391.902.586 1.414.586s1.023-.195 1.414-.586a2 2 0 0 0 0-2.828l-4.366-4.366a10.352 10.352 0 0 0 1.775-5.808c0-3.391-1.637-6.399-4.154-8.302V21.999c0-3.309-2.691-6-6-6h-4.003v-.268a4.738 4.738 0 0 0-4.732-4.732H22.734a4.738 4.738 0 0 0-4.733 4.732v.268h-4c-3.309 0-6 2.691-6 6v17c0 3.309 2.691 6 6 6zm28.412 3.823c-3.535 0-6.412-2.876-6.412-6.411S38.876 36 42.412 36s6.412 2.876 6.412 6.412-2.876 6.411-6.412 6.411zm0-16.823c-5.261 0-9.612 3.926-10.304 9H14c-1.103 0-2-.897-2-2v-9.046l11.833 2.149v1.73a2 2 0 0 0 2 2h5a2 2 0 0 0 2-2v-1.73l11.836-2.149v2.3A10.376 10.376 0 0 0 42.411 32zm-14.578-.167v-2.666h1v2.666h-1zm-5.833-16.101c0-.404.329-.732.733-.732h11.201c.404 0 .732.328.732.732V16H22v-.268zm-8 4.268h28.67c1.103 0 2 .897 2 2v3.888l-11.836 2.149v-.871a2 2 0 0 0-2-2h-5a2 2 0 0 0-2 2v.871l-11.833-2.149v-3.889c0-1.103.897-2 2-2z"></path></g><!----></svg>